<svg id="Calque_1" data-name="Calque 1" xmlns="http://www.w3.org/2000/svg" viewBox="0 0 219 40"><defs><style>.cls-1{fill:#1a202c;}.cls-2,.cls-5{font-size:28px;font-family:Roboto-Medium, Roboto;font-weight:500;}.cls-2,.cls-6{fill:#e6faf2;}.cls-2{letter-spacing:0.01em;}.cls-3,.cls-5{letter-spacing:0.02em;}.cls-4{letter-spacing:0.01em;}.cls-5{fill:#00dc81;}</style></defs><rect class="cls-1" x="-2" y="-2.67" width="224" height="46"/><text class="cls-2" transform="translate(54.08 28.18)">f<tspan class="cls-3" x="10.16" y="0">e</tspan><tspan class="cls-4" x="25.74" y="0">r</tspan><tspan class="cls-3" x="35.74" y="0">anet/</tspan></text><text class="cls-5" transform="translate(158.11 28.18)">wiki</text><path class="cls-6" d="M24.91,1.52A18.45,18.45,0,0,0,9.44,12a17.35,17.35,0,0,0-1.82,8A17.2,17.2,0,0,0,9.44,28a18.25,18.25,0,0,0,8.64,8.64,17.59,17.59,0,0,0,8,1.83,17.58,17.58,0,0,0,8-1.83A18.27,18.27,0,0,0,42.8,28a17.44,17.44,0,0,0,1.82-8,16.92,16.92,0,0,0-.87-5.65A18.51,18.51,0,0,0,24.91,1.52Zm-6.65,9.55c.62.31,1.62.88,2.23,1.27s1.67,1,2.33,1.3c2.95,1.46,4.71,3.08,5.26,4.89a4.55,4.55,0,0,1-.14,2.87c-.66,1.61-2.5,3.62-5.29,5.79-.51.4-1.17.94-1.45,1.19a4.37,4.37,0,0,1-4.45.92,4.44,4.44,0,0,1-2.17-3.86c0-1.12,1.08-2.7,2.93-4.3.49-.43.89-.79.89-.81s-1.06-.7-2.36-1.52c-2.16-1.38-2.38-1.55-2.74-2a3.83,3.83,0,0,1-.76-3.13,3.33,3.33,0,0,1,.9-1.9,4,4,0,0,1,2.08-1.1l.7-.14C16.67,10.39,17.2,10.54,18.26,11.07Zm19.6,13.29a2.7,2.7,0,0,1,1.46,1.29,5.26,5.26,0,0,1,.06,1.91,2.45,2.45,0,0,1-1.17,1.32,5.84,5.84,0,0,1-2.79.42c-.75,0-2,.06-2.85.14-2.39.25-3,.12-3.63-.69a4.26,4.26,0,0,1-.69-1.94A2.73,2.73,0,0,1,29,25.28a5.76,5.76,0,0,1,3-1.09c.36,0,1.71-.07,3-.06C37.19,24.15,37.34,24.16,37.86,24.36Z"/></svg>